<svg xmlns="http://www.w3.org/2000/svg" fill="none" viewBox="0 0 251 150"><g clip-path="url(#clip0)"><path fill="#F7F7F7" d="M1.382 104.346l.204 1.14c4.856 27.342 19.184 39.359 19.184 39.359h214.555s13.123-23.996 7.353-44.956c-.087-.32-.175-.638-.272-.967-3.798-12.453-14.511-23.687-38.989-27.912a1118.846 1118.846 0 01-14.57-2.61l-1.855-.358c-15.541-2.958-26.362-5.598-34.598-8.614l-1.778-.677c-16.755-6.545-22.476-15.072-37.474-32.378a64.274 64.274 0 00-3.729-3.955c-.292-.29-.583-.57-.884-.84a83.04 83.04 0 00-30.412-18.08l-.972-.31C62.313-1.49 46.2-1.557 32.571 6.63c-.515.31-1.03.629-1.544.967-10.792 7.087-19.883 19.607-25.313 39.436-6.45 23.716-6.722 42.656-4.332 57.313z"/><path fill="#fff" d="M23.033 51.906c3.088 15.47 13.705 27.96 31.548 37.058 35.065 17.857 49.023 40.2 54.54 55.881h1.049v-.087c-5.527-15.865-19.572-38.565-55.084-56.654-17.57-8.953-28.013-21.193-31.082-36.381C20.886 36.06 26.17 19.634 32.629 6.63c-.514.31-1.03.628-1.544.967-6.236 12.916-11.102 28.965-8.052 44.308zm-21.651 52.44l.204 1.141a387.748 387.748 0 0048.867 18.079c16.066 4.834 27.343 11.998 33.657 21.27h1.165c-6.362-9.736-17.94-17.181-34.54-22.237a386.12 386.12 0 01-49.353-18.253zm74.501-85.33c0 16.851 4.983 39.793 28.576 53.454 9.995 5.84 21.253 7.967 32.471 7.967 15.27 0 30.568-4.012 42.865-8.489 3.118-1.13 6.139-2.34 9.053-3.548l-1.856-.358c-24.283 9.968-57.172 17.993-82.038 3.597-23.195-13.43-28.08-36.033-28.09-52.623a99.595 99.595 0 011.262-15.47l-.97-.309a100.721 100.721 0 00-1.273 15.779z"/><path fill="#fff" d="M110.986 51.665c4.73 6.217 13.103 9.33 25.012 9.33a97.145 97.145 0 0016.376-1.566l-1.777-.677c-19.534 3.123-32.569.56-38.853-7.667-5.614-7.357-5.003-18.311-2.351-28.666a23.18 23.18 0 00-.884-.84c-2.807 10.711-3.516 22.226 2.477 30.086zm16.6 93.18h.971c2.06-8.092 5.877-16.832 12.841-23.928 11.413-11.602 28.742-16.494 51.481-14.435 20.835 1.876 37.502-.338 49.751-6.593-.088-.32-.175-.638-.272-.967-12.103 6.236-28.644 8.44-49.392 6.574-23.079-2.078-40.66 2.901-52.286 14.734-7.12 7.329-11.015 16.32-13.094 24.615z"/><path fill="#FFDFCC" d="M150.394 123.476c3.115 4.93 8.372 15.478 12.709 19.436h-12.635c-3.693-2.127-7.23-5.682-10.585-8.287 0 0-2.318-15.04 10.511-11.149z"/><ellipse cx="163.399" cy="145.865" fill="#FFDFCC" rx="2.96" ry="2.953"/><path fill="#FFDFCC" d="M69.866 131.986c2.605 7.796 12.234 10.04 15.984 11.221l4.44-13.288-.888-1.181H71.346l-1.48 3.248z"/><path fill="#EDEDED" d="M69.977 132.837c2.797-5.318 20.017-2.918 20.017-2.918l-5.143 13.756h48.029c-1.826-6.323-.738-21.715-.738-21.715v.339a17.123 17.123 0 004.089 9.445c.233 3.152 3.885 3.384 3.885 3.384.223-2.412.857-4.77 1.875-6.971 3.353-4.734 8.977-3.553 8.977-3.553 3.552-6.201-1.877-7.719-1.877-7.719s-5.09-29.488-12.501-35.289c-7.411-5.8-19.494-8.701-19.494-8.701l-12.443-.841s-24.4 4.834-29.256 13.168c-4.857 8.334-4.012 39.88-4.012 39.88-3.837 3.142-1.408 7.735-1.408 7.735z"/><path fill="#DDDBDB" d="M90.015 131.387s-2.069-17.886 4.614-33.48c0 0-1.088 23.686 8.625 30.338 9.714 6.651 26.226 5.317 30.345 16.919l-36.425-.329-7.159-13.448zm42.175-9.088a17.135 17.135 0 004.09 9.446c.233 3.152 3.885 3.384 3.885 3.384.223-2.413.857-4.77 1.875-6.971a20.445 20.445 0 01-5.401-8.933c-2.574-8.469-.971-17.673-.816-18.37a155.24 155.24 0 00-3.633 21.444z" opacity=".5"/><path fill="#F7F7F7" d="M85.85 135.529c1.184.709 5.229 1.28 7.103 1.477l-2.96-5.61-4.143 4.133z"/><path fill="#FFDFCC" d="M112.489 138.627s-12.728 0-22.791-8.708c-10.101 3.374-8.29 11.432-5.032 12.697l25.02 2.657 2.803-6.646zm-10.352-66.118s2.856 15.952 11.355 16.04c7.421.067 5.702-9.62 5.148-12.086a9.47 9.47 0 00-.136-.57l3.079-11.699-16.347-8.614-.33 1.789-2.769 15.14z"/><path fill="#F5D2BD" d="M118.64 76.444a9.226 9.226 0 00-.136-.57l3.079-11.68-16.347-8.614-.33 1.789c-2.147 19.075 13.433 19.075 13.734 19.075z"/><path fill="#2F313C" d="M103.07 49.876a28.38 28.38 0 01-2.671-9.494c-.486-4.95.913-6.1 2.972-6.1 0 0 1.088-5.618 3.701-7.551 2.613-1.934 13.239.909 17.299 3.325 4.06 2.418 7.052-4.244 8.927-3.963 1.874.28 2.243 5.414.786 7.734 0 0 3.4-1.875 3.954-3.81.553-1.933 4.429 1.577 3.03 8.77-1.399 7.193-4.614 8.092-4.614 8.092s-.602 7.618-6.857 8.46c-6.255.84-22.768-.6-22.768-.6l-3.759-4.863z"/><path fill="#FFDFCC" d="M132.142 47.15s-3.031 20.67-10.685 23.329c-7.654 2.659-14.036-5.472-15.007-7.648-.971-2.175-1.379-6.767-1.379-6.767s-2.613.6-2.914-3.993c-.301-4.592 3.701-7.31 4.672.6 0 0 3.749-2.05 2.613-9.06a16.489 16.489 0 0010.276 4.022c5.993 0 .816-4.022.816-4.022a16.477 16.477 0 0011.608 3.539z"/><path fill="#818389" d="M84.352 142.505h79.458v2.659H84.352v-2.659z"/><path fill="#4D515B" d="M84.352 142.505h15.376v2.659H84.352v-2.659z"/><path fill="#FFDFCC" d="M104.012 142.583s4.41-6.545 11.024-6.439c5.012.077 5.197 3.219 5.197 3.219a3.01 3.01 0 012.462.804 2.972 2.972 0 01.908 2.416h-19.591z"/><path fill="#fff" stroke="#F230DB" stroke-miterlimit="10" d="M192.305 100.652c-.524 3.181.622 6.004 2.565 6.323 1.942.319 3.943-1.992 4.468-5.163.524-3.17-.622-6.004-2.565-6.323-1.942-.319-3.933 1.992-4.468 5.163z"/><path fill="#818389" d="M162.796 128.584h51.782a5.57 5.57 0 003.111-.96 5.535 5.535 0 002.037-2.53c6.032-15.034 10.539-29.681 12.355-43.632a5.497 5.497 0 00-1.335-4.35 5.523 5.523 0 00-1.878-1.385 5.572 5.572 0 00-2.285-.492h-52.451a5.547 5.547 0 00-3.613 1.337 5.498 5.498 0 00-1.856 3.362c-1.942 12.926-5.828 26.781-11.054 41.331a5.49 5.49 0 00.706 4.985 5.535 5.535 0 004.481 2.334z"/><path fill="#4D515B" d="M164.894 128.584h49.684a5.57 5.57 0 003.111-.96 5.535 5.535 0 002.037-2.53c6.032-15.034 10.539-29.681 12.355-43.632a5.497 5.497 0 00-1.335-4.35 5.523 5.523 0 00-1.878-1.385 5.572 5.572 0 00-2.285-.492H176.22c-1.327.002-2.609.477-3.614 1.339s-1.667 2.054-1.864 3.36c-1.943 12.926-5.828 26.781-11.044 41.331a5.482 5.482 0 00.703 4.993 5.542 5.542 0 004.493 2.326z"/><path fill="#818389" d="M167.478 145.164h19.864a6.818 6.818 0 003.927-1.258 6.77 6.77 0 002.474-3.286l5.954-20.738h-12.879l-4.77 16.136a5.338 5.338 0 01-1.629 2.284c-.738.603-1.624 1-2.567 1.148l-7.44 1.16a3.083 3.083 0 00-2.526 2.369l-.408 2.185z"/><path fill="#4D515B" d="M177.891 139.45l1.681-.155a6.338 6.338 0 003.203-1.19 6.295 6.295 0 002.11-2.677l5.109-15.469h-3.167l-4.779 16.059a5.332 5.332 0 01-1.612 2.275 5.38 5.38 0 01-2.545 1.157z" opacity=".35"/><path fill="#676C7A" d="M195.101 101.339c-.739 3.065.204 5.917 2.107 6.371 1.904.455 4.041-1.662 4.779-4.727.739-3.065-.213-5.907-2.107-6.362-1.895-.454-4.07 1.653-4.779 4.718z"/><path fill="#DADADA" d="M14.495 145.164h236.517v4.834H14.495v-4.834z"/><path fill="#2FEDD3" d="M216.677 138.183a5.803 5.803 0 015.148-5.591v-1.043a.462.462 0 01.476-.448h9.884a.455.455 0 01.437.272.46.46 0 01.039.176v13.725h-10.836v-1.501a5.8 5.8 0 01-5.148-5.59zm5.148 3.815v-7.576a3.85 3.85 0 00-3.288 3.811 3.855 3.855 0 003.288 3.811v-.046z"/><path fill="#818389" d="M14.495 145.164h52.451v4.834H14.495v-4.834z"/><path fill="#D2D2D2" d="M39.264 125.422l2.263-14.019 7.207.89-2.671 13.931-6.8-.802z"/><path fill="#DADADA" d="M39.468 124.136l-2.487-17.305a.96.96 0 00-.392-.653.97.97 0 00-.745-.169.97.97 0 00-.806 1.112l2.769 17.895h-1.05l-3.71-13.709a.971.971 0 00-1.214-.716.979.979 0 00-.636.455.97.97 0 00-.093.773l3.468 13.197 3.477 1.634 1.419-2.514z"/><path fill="#4D515B" d="M32.144 124.136v17.847c0 .769.307 1.507.853 2.051a2.921 2.921 0 002.06.849h10.316c.773 0 1.514-.305 2.06-.849a2.893 2.893 0 00.854-2.051v-17.847H32.144z"/><path fill="#818389" d="M32.144 124.136h16.104v4.186H32.144v-4.186z"/><path fill="#EDEDED" d="M48.355 59.95c-12.654 0-22.913-10.211-22.913-22.807 0-12.596 10.258-22.807 22.913-22.807 12.655 0 22.914 10.211 22.914 22.807 0 12.596-10.259 22.807-22.914 22.807z" opacity=".35"/><path fill="#2FEDD3" d="M39.291 54.898C28.606 49.664 24.206 36.8 29.464 26.164c5.257-10.636 18.182-15.016 28.868-9.782 10.685 5.233 15.085 18.098 9.827 28.734-5.258 10.636-18.182 15.015-28.868 9.782z"/><path fill="#fff" d="M30.412 38.417c-1.514-9.835 5.382-19.012 15.402-20.498 10.02-1.485 19.37 5.283 20.884 15.118 1.513 9.834-5.383 19.011-15.403 20.497-10.02 1.486-19.37-5.283-20.884-15.117z"/><path stroke="#4D515B" stroke-linecap="round" stroke-width="2" d="M50.565 26.071l-2.91 10.838m7.103.001h-7.104"/></g><defs><clipPath id="clip0"><path fill="#fff" d="M0 0h251v150H0z" transform="matrix(-1 0 0 1 251 0)"/></clipPath></defs></svg>